<svg width="56" height="56" viewBox="0 0 56 56" fill="none" xmlns="http://www.w3.org/2000/svg">
<path d="M17.957 39.4844H38.0312C40.5625 39.4844 41.875 38.1836 41.875 35.6875V21.4141C41.875 18.918 40.5625 17.6172 38.0312 17.6172H17.957C15.4258 17.6172 14.1133 18.9062 14.1133 21.4141V35.6875C14.1133 38.1836 15.4258 39.4844 17.957 39.4844ZM18.0977 37.1875C17.0078 37.1875 16.4102 36.625 16.4102 35.4883V21.6133C16.4102 20.4766 17.0078 19.9023 18.0977 19.9023H37.8906C38.9688 19.9023 39.5781 20.4766 39.5781 21.6133V35.4883C39.5781 36.625 38.9688 37.1875 37.8906 37.1875H18.0977ZM25.7969 33.1562L32.5352 29.1953C33.0391 28.9023 33.0273 28.1992 32.5352 27.9062L25.7969 23.9336C25.293 23.6406 24.6133 23.8867 24.6133 24.4609V32.6289C24.6133 33.2031 25.2461 33.4844 25.7969 33.1562Z" fill="black"/>
<rect x="0.5" y="0.5" width="55" height="55" rx="27.5" stroke="#EBEBEB"/>
</svg>
