<svg width="56" height="56" viewBox="0 0 56 56" fill="none" xmlns="http://www.w3.org/2000/svg">
<path d="M17.957 17.6172C15.4375 17.6172 14.1133 18.918 14.1133 21.4258V23.9688C14.1133 24.6836 14.5586 25.1289 15.2617 25.1289C15.9766 25.1289 16.4102 24.6836 16.4102 23.9688V21.6133C16.4102 20.4766 17.0078 19.9141 18.0977 19.9141H37.8906C38.9688 19.9141 39.5781 20.4766 39.5781 21.6133V23.9688C39.5781 24.6836 40.0234 25.1289 40.7266 25.1289C41.4414 25.1289 41.875 24.6836 41.875 23.9688V21.4258C41.875 18.918 40.5625 17.6172 38.0312 17.6172H17.957ZM24.2617 34.0234C24.7891 34.0234 25.1406 33.7656 25.3281 33.1094L26.0547 30.9766H29.957L30.6719 33.1094C30.8594 33.7656 31.2109 34.0234 31.7383 34.0234C32.3711 34.0234 32.7695 33.6484 32.7695 33.0508C32.7695 32.8633 32.7227 32.6406 32.6172 32.3359L29.6172 24.1211C29.3359 23.3242 28.7852 22.9258 27.9883 22.9258C27.1914 22.9258 26.6641 23.3242 26.3828 24.1211L23.3828 32.3359C23.2773 32.6406 23.2305 32.8633 23.2305 33.0508C23.2305 33.6484 23.6289 34.0234 24.2617 34.0234ZM26.5352 29.3594L27.9414 25.1289H28.0586L29.4648 29.3594H26.5352ZM15.2617 29.9805C16.1875 29.9805 16.9375 29.2305 16.9375 28.293C16.9375 27.3789 16.1875 26.6172 15.2617 26.6172C14.3477 26.6172 13.5859 27.3789 13.5859 28.293C13.5859 29.2305 14.3477 29.9805 15.2617 29.9805ZM40.7266 29.9805C41.6406 29.9805 42.4023 29.2305 42.4023 28.293C42.4023 27.3789 41.6406 26.6172 40.7266 26.6172C39.8008 26.6172 39.0508 27.3672 39.0508 28.293C39.0508 29.2305 39.8008 29.9805 40.7266 29.9805ZM17.957 39.4961H38.0312C40.5625 39.4961 41.875 38.1836 41.875 35.6875V32.6641C41.875 31.9375 41.4414 31.5039 40.7266 31.5039C40.0117 31.5039 39.5781 31.9375 39.5781 32.6641V35.4883C39.5781 36.625 38.9688 37.1992 37.8906 37.1992H18.0977C17.0078 37.1992 16.4102 36.625 16.4102 35.4883V32.6641C16.4102 31.9375 15.9766 31.5039 15.2617 31.5039C14.5586 31.5039 14.1133 31.9375 14.1133 32.6641V35.6875C14.1133 38.1953 15.4375 39.4961 17.957 39.4961Z" fill="black"/>
<rect x="0.5" y="0.5" width="55" height="55" rx="27.5" stroke="#EBEBEB"/>
</svg>
