<svg width="42" height="42" viewBox="0 0 42 42" fill="none" xmlns="http://www.w3.org/2000/svg">
<path fill-rule="evenodd" clip-rule="evenodd" d="M21 0C9.40202 0 0 9.40202 0 21C0 32.598 9.40202 42 21 42C32.598 42 42 32.598 42 21C42 9.40202 32.598 0 21 0ZM22.8713 16.3729L26.4084 11.7042L30.0931 16.8348C30.9414 18.016 30.921 19.6121 30.0428 20.7713L25.9853 26.127C26.0356 26.0579 26.4281 25.4566 25.7278 24.3478C25.4214 23.8627 23.9881 21.9029 22.8476 20.3548C21.9733 19.1682 21.9812 17.5477 22.8713 16.3729ZM12.0643 16.7273L15.6349 12.0144L24.4057 24.3708C25.2435 25.5512 25.2188 27.1386 24.3447 28.2924L20.7741 33.0053L12.0033 20.6489C11.1655 19.4685 11.1902 17.8811 12.0643 16.7273Z" fill="white"/>
</svg>
